<?xml version="1.0" encoding="UTF-8" standalone="no"?>
<!-- Created with Inkscape (http://www.inkscape.org/) -->

<svg
   width="103.88882mm"
   height="57.399319mm"
   viewBox="0 0 103.88882 57.399319"
   version="1.1"
   id="svg13537"
   inkscape:version="1.1.1 (3bf5ae0d25, 2021-09-20)"
   sodipodi:docname="autogramm.A.svg"
   xmlns:inkscape="http://www.inkscape.org/namespaces/inkscape"
   xmlns:sodipodi="http://sodipodi.sourceforge.net/DTD/sodipodi-0.dtd"
   xmlns="http://www.w3.org/2000/svg"
   xmlns:svg="http://www.w3.org/2000/svg">
  <sodipodi:namedview
     id="namedview13539"
     pagecolor="#ffffff"
     bordercolor="#666666"
     borderopacity="1.0"
     inkscape:pageshadow="2"
     inkscape:pageopacity="0.0"
     inkscape:pagecheckerboard="0"
     inkscape:document-units="mm"
     showgrid="false"
     inkscape:zoom="1.5554293"
     inkscape:cx="104.47277"
     inkscape:cy="108.33022"
     inkscape:window-width="2432"
     inkscape:window-height="1403"
     inkscape:window-x="0"
     inkscape:window-y="0"
     inkscape:window-maximized="1"
     inkscape:current-layer="layer1"
     fit-margin-top="0"
     fit-margin-left="0"
     fit-margin-right="0"
     fit-margin-bottom="0" />
  <defs
     id="defs13534" />
  <g
     inkscape:label="Layer 1"
     inkscape:groupmode="layer"
     id="layer1"
     transform="translate(-35.829455,-106.05334)">
    <path
       id="path995-8"
       style="font-style:normal;font-variant:normal;font-weight:normal;font-stretch:normal;font-size:211.188px;line-height:1.25;font-family:BlackSingature;-inkscape-font-specification:BlackSingature;font-variation-settings:normal;vector-effect:none;fill:#0a4798;fill-opacity:1;stroke:none;stroke-width:0.203547;stroke-linecap:butt;stroke-linejoin:miter;stroke-miterlimit:4;stroke-dasharray:none;stroke-dashoffset:0;stroke-opacity:1;stop-color:#000000"
       d="m 65.849152,106.0534 c -0.03598,-3.4e-4 -0.0729,6.6e-4 -0.111323,0.004 -0.562508,0.0324 -0.966339,0.2661 -1.211362,0.70086 -1.643805,2.13538 -3.045903,4.68401 -4.206237,7.64622 -1.117105,2.90599 -2.19456,6.25504 -3.232101,10.04695 -1.044849,3.74315 -1.914539,6.31001 -2.700125,8.31982 -2.876923,2.1662 -5.698242,5.15071 -8.372995,8.3345 -4.289776,5.16534 -7.342687,10.32428 -9.158807,15.47674 l -0.237751,0.48355 c -0.108121,0.31503 -0.180264,0.52502 -0.216279,0.62998 -0.02882,0.15389 -0.09362,0.41278 -0.194484,0.77656 -0.100963,0.3638 -0.187233,0.65068 -0.259376,0.86068 -0.02147,0.20259 -0.06122,0.45778 -0.118857,0.76541 -3.8e-5,0.34904 0.01507,0.62121 0.04332,0.81639 0.08665,0.23668 0.169527,0.44883 0.248903,0.63667 0.08665,0.23667 0.241745,0.41341 0.46537,0.53024 0.173105,0.12432 0.33894,0.19983 0.497617,0.22641 0.216353,0.068 0.396692,0.0667 0.540884,-0.004 0.201925,-0.0296 0.39656,-0.10774 0.583981,-0.23498 0.245192,-0.0857 0.436324,-0.18855 0.57332,-0.30829 0.144098,-0.071 0.302794,-0.21883 0.475824,-0.44356 0.180263,-0.17593 0.313605,-0.3202 0.40012,-0.43258 0.144286,-0.071 0.277666,-0.21516 0.40014,-0.43255 l 0.270527,-0.26401 c 1.369888,-1.54676 2.991786,-3.82847 4.866072,-6.84526 3.258471,-5.16402 6.329465,-10.72459 9.212717,-16.68143 0.562244,-1.07957 1.08465,-2.2529 1.567556,-3.5203 2.321761,-1.73593 4.997362,-3.49268 7.528281,-4.88634 0.217446,4.60561 0.337264,9.76907 1.008985,13.95916 0.722183,4.18269 1.923825,8.1208 3.605096,11.81416 1.681195,3.69329 3.729981,6.55994 6.146451,8.59991 0.706888,0.59468 1.056471,0.86762 1.049502,0.81879 0.05048,-0.008 -0.234512,-0.36459 -0.854848,-1.07165 -2.236188,-2.21596 -4.054153,-4.91696 -5.453991,-8.10297 -2.987191,-6.59389 -4.310685,-16.00811 -4.277062,-26.58433 2.543916,-1.90055 8.10842,-5.31813 17.460318,-8.82637 1.316958,-0.50336 3.899281,-1.38028 5.958902,-1.99539 13.40791,-3.98926 35.75088,-7.79662 47.15599,6.06578 0.14918,0.18139 1.02245,0.81026 1.28141,1.18322 -4.59641,-11.37164 -29.39324,-15.00714 -53.016634,-6.71567 -7.038258,2.38693 -13.762613,5.73258 -18.780309,9.09552 0.04954,-3.49782 0.0094,-5.88847 0.411686,-9.43798 0.07196,-0.90808 0.269962,-2.18376 0.594097,-3.82687 0.31692,-1.6919 0.518619,-2.76843 0.605078,-3.22986 0.252256,-1.43309 0.338319,-2.41815 0.258848,-2.95504 -2.07e-4,-0.65445 -0.269735,-0.98472 -0.808491,-0.99062 z m 70.735708,18.06052 c 0.0247,0.061 0.0501,0.12187 0.0738,0.18346 0.006,-0.0478 -0.0237,-0.11132 -0.0738,-0.18346 z M 65.1543,108.38601 c 0.0075,0.39786 -0.27712,2.13476 -0.853303,5.21093 -0.785021,4.45311 -0.921528,8.43259 -0.869785,13.66083 -3.180884,1.70644 -4.82823,2.77675 -6.925406,4.23438 0.554954,-1.4774 1.318691,-3.9828 2.291415,-7.5159 0.972744,-3.53313 1.920417,-6.53895 2.842943,-9.01756 0.972969,-2.48599 2.144304,-4.67686 3.514136,-6.57268 z m 72.15444,11.68611 c -0.002,-0.0233 0.0689,0.19566 -0.0132,0.21886 v 1.7e-4 c -0.0443,0.0132 0.0264,0.32566 0.21181,0.93982 0.14843,0.49131 0.28119,1.0703 0.39841,1.7368 0.14108,0.62651 0.2434,1.16406 0.30675,1.61252 0.0635,0.44847 0.13807,1.09356 0.22419,1.93524 0.11,0.80173 0.18838,1.37912 0.23498,1.73235 -0.47865,-0.43225 -1.24749,-1.14959 -2.30652,-2.15221 -1.01469,-1.015 -1.73092,-1.69738 -2.1486,-2.04683 -0.79453,-0.64364 -1.41624,-1.05255 -1.86504,-1.22681 -0.3638,-0.13147 -0.43191,-0.0791 -0.20462,0.1571 0.84845,0.86168 1.38641,1.41072 1.61373,1.64687 l -1.18115,-1.16828 c 0.2477,0.26373 0.71084,0.78363 1.38936,1.55965 0.67845,0.77601 1.13133,1.28199 1.35867,1.51811 1.49935,1.74531 2.27581,2.46674 3.08841,2.7724 0.34702,0.036 0.69595,0.0384 1.04657,0.007 0.26947,-0.14184 0.19857,-0.67625 0.22315,-0.71597 0.048,-0.08 0.0431,-0.19507 -0.0151,-0.34555 0.004,-0.0676 -0.0478,-0.53618 -0.15427,-1.40551 -0.0825,-0.90928 -0.14881,-1.50675 -0.1991,-1.79242 -0.0706,-0.31329 -0.19684,-0.81079 -0.37868,-1.49254 -0.13751,-0.69411 -0.32472,-1.27436 -0.56165,-1.74092 -0.21296,-0.50655 -0.49238,-0.99465 -0.83819,-1.46405 -0.16011,-0.21745 -0.22881,-0.27163 -0.22986,-0.28563 z m -83.895816,15.08879 c -2.328127,5.17751 -5.492794,10.9759 -9.493716,17.39552 -1.874324,3.01674 -3.4532,5.24246 -4.736479,6.67686 -0.79314,0.91389 -1.384335,1.44911 -1.7737,1.60583 -0.09362,-0.28549 -0.119046,-0.63089 -0.07591,-1.03611 0.04313,-0.40523 0.0972,-0.73712 0.161992,-0.99595 0.07214,-0.20997 0.201794,-0.55324 0.389139,-1.0294 0.187421,-0.47622 0.306241,-0.71811 0.356703,-0.72542 1.686376,-4.98393 4.602403,-10.02294 8.747875,-15.11731 2.134057,-2.65586 4.275404,-4.91384 6.424022,-6.77402 z"
       sodipodi:nodetypes="cccccccccccccccccccccccccccccccccccccsccccccccccccccccsccscccccccccccccccccccccccsssccccccscccc" />
  </g>
</svg>
